<svg width="1213" height="214" viewBox="0 0 1213 214" fill="none" xmlns="http://www.w3.org/2000/svg">
<g opacity="0.851064">
<path d="M472.766 84.1562L471.362 84.2732C470.348 80.529 468.827 77.0187 466.798 73.7425C464.77 70.4663 462.352 67.6191 459.544 65.2009C456.814 62.7828 453.694 60.8716 450.183 59.4675C446.751 58.0634 443.085 57.3614 439.185 57.3614C433.802 57.3614 429.005 58.5705 424.793 60.9886C420.58 63.4068 417.031 66.605 414.145 70.5833C411.337 74.5616 409.153 79.0859 407.593 84.1562C406.11 89.1485 405.369 94.2969 405.369 99.6012C405.369 105.218 406.149 110.483 407.71 115.397C409.348 120.312 411.649 124.602 414.613 128.268C417.577 131.856 421.165 134.704 425.378 136.81C429.59 138.916 434.27 139.969 439.419 139.969C443.475 139.969 447.258 139.228 450.768 137.746C454.357 136.264 457.516 134.314 460.246 131.895C463.054 129.477 465.394 126.708 467.267 123.588C469.217 120.39 470.543 117.113 471.245 113.759H472.649L472.298 139.501H470.894C469.958 138.175 468.983 136.966 467.969 135.874C466.954 134.782 466.252 134.236 465.862 134.236C465.706 134.236 465.004 134.665 463.756 135.523C462.508 136.303 460.714 137.2 458.374 138.214C456.034 139.15 453.187 140.008 449.832 140.788C446.478 141.49 442.617 141.841 438.249 141.841C430.994 141.841 424.442 140.827 418.591 138.799C412.741 136.693 407.749 133.768 403.614 130.023C399.558 126.201 396.438 121.677 394.254 116.45C392.069 111.146 390.977 105.335 390.977 99.0162C390.977 97.6121 391.055 96.013 391.211 94.2189C391.445 92.4248 391.796 90.5136 392.264 88.4855C392.811 86.4574 393.513 84.3512 394.371 82.1671C395.307 79.9049 396.477 77.6428 397.881 75.3806C399.519 72.7284 401.547 70.1933 403.965 67.7751C406.383 65.3569 409.231 63.2508 412.507 61.4567C415.783 59.5846 419.488 58.1025 423.623 57.0104C427.757 55.9183 432.398 55.3723 437.547 55.3723C442.227 55.3723 446.322 55.8013 449.832 56.6594C453.343 57.5174 456.268 58.4535 458.608 59.4675C460.948 60.4816 462.742 61.4177 463.99 62.2757C465.238 63.1338 465.94 63.5628 466.096 63.5628C466.252 63.5628 466.525 63.4068 466.915 63.0948C467.384 62.7048 467.852 62.2757 468.32 61.8077C468.866 61.2617 469.412 60.6766 469.958 60.0526C470.504 59.3505 471.011 58.6485 471.479 57.9464H472.766V84.1562ZM561.969 117.269L557.64 141.373H482.521V140.203C484.471 139.891 486.382 139.384 488.254 138.682C490.204 137.98 491.725 137.005 492.817 135.757C493.207 135.289 493.519 134.626 493.753 133.768C494.065 132.831 494.299 131.778 494.455 130.608C494.611 129.438 494.728 128.229 494.806 126.981C494.962 125.655 495.04 124.368 495.04 123.12C495.04 122.028 495.04 120.546 495.04 118.674C495.118 116.801 495.157 114.773 495.157 112.589C495.235 110.327 495.274 108.026 495.274 105.686C495.274 103.267 495.274 101.005 495.274 98.8992V76.1997C495.274 74.7956 495.274 73.4305 495.274 72.1044C495.274 70.7003 495.196 69.4132 495.04 68.2431C494.962 66.995 494.806 65.903 494.572 64.9669C494.338 64.0308 493.987 63.2898 493.519 62.7438C492.427 61.4177 490.945 60.4036 489.073 59.7016C487.279 58.9995 485.368 58.5315 483.34 58.2975V57.1274H520.665V58.2975C519.651 58.4535 518.442 58.6875 517.038 58.9995C515.634 59.3115 514.308 59.8186 513.06 60.5206C511.811 61.2227 510.719 62.2367 509.783 63.5628C508.925 64.8109 508.457 66.488 508.379 68.5942C508.301 71.3243 508.223 73.8205 508.145 76.0827C508.145 78.3448 508.106 80.568 508.028 82.7521C508.028 84.9363 508.028 87.1984 508.028 89.5386C508.028 91.8787 508.028 94.4919 508.028 97.3781C508.028 100.03 508.028 102.448 508.028 104.633C508.028 106.739 508.028 108.806 508.028 110.834C508.028 112.862 508.028 114.968 508.028 117.152C508.106 119.259 508.145 121.638 508.145 124.29C508.223 126.786 508.301 129.165 508.379 131.427C508.535 133.69 508.964 135.367 509.666 136.459C509.978 136.849 510.602 137.239 511.538 137.629C512.475 138.019 513.606 138.37 514.932 138.682C516.258 138.916 517.701 139.15 519.261 139.384C520.821 139.54 522.381 139.618 523.941 139.618C524.565 139.618 525.54 139.618 526.866 139.618C528.271 139.54 529.792 139.462 531.43 139.384C533.068 139.228 534.745 139.033 536.461 138.799C538.177 138.565 539.698 138.253 541.024 137.863C544.145 137.005 546.719 135.874 548.747 134.47C550.853 133.065 552.647 131.466 554.129 129.672C555.611 127.8 556.859 125.811 557.874 123.705C558.888 121.521 559.863 119.259 560.799 116.918L561.969 117.269ZM652.534 98.6652C652.534 104.906 651.364 110.678 649.024 115.982C646.683 121.287 643.485 125.889 639.429 129.789C635.451 133.69 630.77 136.693 625.388 138.799C620.084 140.905 614.428 141.958 608.422 141.958C602.493 141.958 596.877 140.944 591.573 138.916C586.268 136.81 581.627 133.885 577.649 130.14C573.671 126.318 570.511 121.794 568.171 116.567C565.909 111.263 564.778 105.452 564.778 99.1332C564.778 92.4248 565.987 86.4184 568.405 81.114C570.823 75.7316 574.061 71.2073 578.117 67.5411C582.251 63.7968 587.048 60.9496 592.509 58.9995C598.047 56.9714 603.859 55.9573 609.943 55.9573C616.573 55.9573 622.502 57.1274 627.728 59.4675C633.033 61.8077 637.518 64.9669 641.184 68.9452C644.85 72.8454 647.659 77.3697 649.609 82.5181C651.559 87.6664 652.534 93.0488 652.534 98.6652ZM638.025 98.7822C638.025 94.0239 637.401 89.2265 636.153 84.3902C634.983 79.5539 633.15 75.1856 630.653 71.2853C628.235 67.3071 625.193 64.1089 621.527 61.6907C617.86 59.1945 613.531 57.9464 608.539 57.9464C603.469 57.9464 599.061 59.1945 595.317 61.6907C591.651 64.1089 588.609 67.2681 586.19 71.1683C583.85 75.0686 582.095 79.5149 580.925 84.5072C579.833 89.4216 579.287 94.4139 579.287 99.4842C579.287 104.789 579.911 109.898 581.159 114.812C582.407 119.727 584.24 124.056 586.658 127.8C589.155 131.544 592.236 134.548 595.902 136.81C599.646 139.072 603.976 140.203 608.89 140.203C613.804 140.203 618.056 138.955 621.644 136.459C625.31 133.963 628.352 130.764 630.77 126.864C633.189 122.886 634.983 118.44 636.153 113.525C637.401 108.611 638.025 103.697 638.025 98.7822ZM752.297 58.2975C749.411 58.6875 747.109 59.4285 745.393 60.5206C743.755 61.6127 742.468 63.2898 741.532 65.552C741.298 66.098 741.064 66.995 740.83 68.2431C740.674 69.4912 740.518 70.9343 740.362 72.5724C740.206 74.2105 740.089 75.9656 740.011 77.8378C739.933 79.6319 739.894 81.426 739.894 83.2201C739.816 86.5744 739.699 90.3186 739.543 94.4529C739.465 98.5872 739.348 103.267 739.192 108.494C739.114 109.976 738.997 111.848 738.841 114.11C738.763 116.372 738.412 118.791 737.788 121.365C737.164 123.861 736.15 126.396 734.746 128.97C733.419 131.466 731.508 133.768 729.012 135.874C726.516 137.902 723.318 139.54 719.418 140.788C715.517 141.958 710.72 142.543 705.026 142.543C699.409 142.543 694.651 141.958 690.751 140.788C686.928 139.618 683.769 138.058 681.273 136.108C678.777 134.08 676.827 131.895 675.423 129.555C674.096 127.137 673.082 124.797 672.38 122.535C671.756 120.195 671.366 118.088 671.21 116.216C671.132 114.266 671.093 112.823 671.093 111.887C671.093 109.703 671.093 106.856 671.093 103.345C671.171 99.8353 671.21 95.935 671.21 91.6447V76.0827C671.21 74.6786 671.21 73.2745 671.21 71.8704C671.21 70.4663 671.132 69.1792 670.976 68.0091C670.898 66.761 670.742 65.669 670.508 64.7329C670.274 63.7188 669.923 62.9388 669.455 62.3927C668.363 61.0667 666.998 60.1306 665.36 59.5845C663.8 58.9605 662.006 58.5315 659.978 58.2975V57.1274H694.846V58.2975C693.754 58.4535 692.584 58.6875 691.336 58.9995C690.088 59.3115 688.956 59.8186 687.942 60.5206C686.928 61.1447 686.07 62.0417 685.368 63.2118C684.666 64.3819 684.276 65.864 684.198 67.6581C684.12 69.6862 684.042 71.4803 683.964 73.0405C683.964 74.6006 683.964 76.1217 683.964 77.6038C683.964 79.0859 683.964 80.646 683.964 82.2841C683.964 83.8442 683.964 85.6773 683.964 87.7834C683.964 90.4356 683.964 92.8148 683.964 94.9209C683.964 97.0271 683.964 99.0162 683.964 100.888C683.964 102.682 683.964 104.438 683.964 106.154C684.042 107.792 684.081 109.547 684.081 111.419C684.159 115.553 684.783 119.337 685.953 122.769C687.123 126.123 688.761 129.009 690.868 131.427C692.974 133.768 695.548 135.601 698.59 136.927C701.632 138.175 705.104 138.799 709.004 138.799C713.45 138.799 717.194 138.292 720.237 137.278C723.357 136.264 725.931 134.86 727.959 133.065C730.065 131.271 731.703 129.204 732.873 126.864C734.122 124.524 735.019 122.028 735.565 119.376C736.189 116.723 736.579 114.032 736.735 111.302C736.969 108.494 737.086 105.764 737.086 103.111C737.086 101.005 737.086 99.0942 737.086 97.3781C737.086 95.662 737.086 94.0629 737.086 92.5808C737.086 91.0207 737.086 89.4996 737.086 88.0175C737.086 86.4574 737.086 84.8583 737.086 83.2201C737.086 81.66 737.047 80.0609 736.969 78.4228C736.969 76.7847 736.93 75.2246 736.852 73.7425C736.774 72.2604 736.657 70.8953 736.501 69.6472C736.345 68.3211 736.111 67.2681 735.799 66.488C735.019 64.3039 733.653 62.5487 731.703 61.2227C729.831 59.8186 727.023 58.8435 723.279 58.2975V57.1274H752.297V58.2975ZM849.645 98.0801C849.645 103.931 848.943 109.079 847.539 113.525C846.135 117.971 844.224 121.794 841.806 124.992C839.388 128.19 836.58 130.842 833.381 132.948C830.183 135.055 826.79 136.732 823.202 137.98C819.613 139.228 815.908 140.125 812.086 140.671C808.264 141.139 804.558 141.373 800.97 141.373H758.262V140.203C760.212 139.969 762.085 139.462 763.879 138.682C765.751 137.902 767.155 136.966 768.091 135.874C768.481 135.484 768.754 134.821 768.91 133.885C769.144 132.948 769.339 131.895 769.495 130.725C769.651 129.555 769.768 128.307 769.846 126.981C769.924 125.655 769.963 124.368 769.963 123.12C769.963 122.028 769.963 120.546 769.963 118.674C770.041 116.801 770.08 114.773 770.08 112.589C770.158 110.327 770.197 108.026 770.197 105.686C770.197 103.267 770.197 101.005 770.197 98.8992V76.0827C770.197 74.6786 770.197 73.2745 770.197 71.8704C770.197 70.4663 770.119 69.1792 769.963 68.0091C769.885 66.761 769.729 65.669 769.495 64.7329C769.261 63.7188 768.91 62.9388 768.442 62.3927C767.272 60.9886 765.868 60.0136 764.23 59.4675C762.592 58.9215 760.758 58.5315 758.73 58.2975V57.1274C762.007 57.1274 766.726 57.1274 772.888 57.1274C779.051 57.0494 786.5 57.0104 795.237 57.0104C797.733 57.0104 800.229 57.0104 802.725 57.0104C805.299 57.0104 807.874 57.1274 810.448 57.3614C813.022 57.5954 815.596 57.9854 818.17 58.5315C820.745 59.0775 823.28 59.8966 825.776 60.9886C829.052 62.3927 832.133 64.1869 835.019 66.371C837.906 68.5552 840.402 71.1683 842.508 74.2105C844.692 77.1747 846.408 80.646 847.656 84.6242C848.982 88.5245 849.645 93.0098 849.645 98.0801ZM835.253 98.3142C835.253 93.7898 834.551 89.3826 833.147 85.0923C831.743 80.802 829.793 76.9407 827.297 73.5085C824.801 69.9983 821.837 67.0341 818.404 64.6159C814.972 62.1977 811.228 60.6376 807.172 59.9356C805.612 59.6236 803.895 59.3895 802.023 59.2335C800.151 58.9995 797.85 58.8825 795.12 58.8825C794.184 58.8825 793.17 58.9215 792.078 58.9995C790.986 58.9995 789.893 59.0775 788.801 59.2335C787.787 59.3115 786.812 59.3895 785.876 59.4675C785.018 59.5455 784.316 59.6626 783.77 59.8186C783.38 63.6408 783.146 68.9062 783.068 75.6146C782.99 82.3231 782.951 90.3186 782.951 99.6012C782.951 104.594 782.951 109.157 782.951 113.291C782.951 117.347 782.99 120.663 783.068 123.237C783.068 124.329 783.107 125.538 783.185 126.864C783.341 128.112 783.497 129.36 783.653 130.608C783.809 131.778 784.043 132.87 784.355 133.885C784.745 134.821 785.174 135.523 785.642 135.991C787.202 137.551 789.152 138.565 791.493 139.033C793.911 139.423 796.173 139.618 798.279 139.618C800.229 139.618 802.218 139.54 804.246 139.384C806.353 139.15 808.303 138.76 810.097 138.214C818.521 135.796 824.801 131.115 828.935 124.173C833.147 117.152 835.253 108.533 835.253 98.3142ZM976.66 58.2975C973.774 58.6875 971.434 59.4285 969.64 60.5206C967.924 61.6127 966.598 63.2898 965.661 65.552C965.115 66.722 964.764 68.9062 964.608 72.1044C964.452 75.2246 964.296 78.5788 964.14 82.1671C963.984 85.5213 963.828 89.4996 963.672 94.1019C963.594 98.6262 963.555 103.502 963.555 108.728C963.555 110.912 963.555 113.408 963.555 116.216C963.555 118.947 963.555 121.755 963.555 124.641C963.633 127.449 963.672 130.257 963.672 133.065C963.672 135.874 963.672 138.409 963.672 140.671C963.672 140.983 963.555 141.217 963.321 141.373C963.165 141.607 962.892 141.724 962.502 141.724C961.878 141.724 961.176 141.334 960.396 140.554C953.766 132.909 947.72 125.889 942.26 119.493C936.8 113.096 931.573 107.012 926.581 101.239C921.667 95.389 916.83 89.6946 912.072 84.1562C907.314 78.6178 902.282 72.8844 896.978 66.956V116.333C896.978 120.312 897.056 123.9 897.212 127.098C897.446 130.296 897.953 132.675 898.733 134.236C899.591 136.03 900.917 137.395 902.711 138.331C904.583 139.189 907.119 139.813 910.317 140.203V141.373H881.533V140.203C883.405 139.969 885.277 139.501 887.149 138.799C889.021 138.019 890.503 136.771 891.596 135.055C892.688 133.417 893.39 130.998 893.702 127.8C894.014 124.602 894.248 120.78 894.404 116.333C894.56 112.979 894.677 109.04 894.755 104.516C894.833 99.9133 894.872 94.9989 894.872 89.7726C894.872 87.5104 894.872 85.6383 894.872 84.1562C894.872 82.6741 894.872 81.231 894.872 79.8269C894.872 78.4228 894.872 76.9797 894.872 75.4976C894.872 73.9375 894.833 72.0264 894.755 69.7642C894.521 67.5021 893.975 65.669 893.117 64.2649C892.259 62.7828 891.244 61.6517 890.074 60.8716C888.904 60.0136 887.617 59.4285 886.213 59.1165C884.887 58.7265 883.6 58.4535 882.352 58.2975V57.1274H906.104L961.566 121.95V82.1671C961.566 79.0469 961.527 76.0827 961.449 73.2745C961.371 70.3883 961.02 68.1261 960.396 66.488C959.616 64.3039 958.212 62.5487 956.184 61.2227C954.234 59.8186 951.387 58.8435 947.642 58.2975V57.1274H976.66V58.2975ZM1020.89 141.373H985.436V140.203C987.386 139.891 989.18 139.384 990.818 138.682C992.534 137.98 993.977 136.966 995.147 135.64C995.538 135.172 995.811 134.509 995.967 133.651C996.201 132.792 996.357 131.778 996.435 130.608C996.591 129.438 996.669 128.229 996.669 126.981C996.747 125.655 996.786 124.368 996.786 123.12C996.786 122.028 996.786 120.546 996.786 118.674C996.864 116.801 996.903 114.773 996.903 112.589C996.981 110.327 997.02 108.026 997.02 105.686C997.02 103.267 997.02 101.005 997.02 98.8992V76.0827C997.02 74.6786 997.02 73.2745 997.02 71.8704C997.02 70.4663 996.942 69.1792 996.786 68.0091C996.708 66.761 996.552 65.669 996.318 64.7329C996.084 63.7188 995.733 62.9388 995.264 62.3927C994.172 61.0667 992.807 60.1306 991.169 59.5845C989.609 58.9605 987.815 58.5315 985.787 58.2975V57.1274H1020.77V58.2975C1019.13 58.5315 1017.38 58.9605 1015.51 59.5845C1013.63 60.2086 1012.19 61.4567 1011.18 63.3288C1010.48 64.6549 1010.09 66.332 1010.01 68.3601C1010.01 70.3883 1009.97 72.2994 1009.89 74.0935C1009.89 76.0437 1009.85 77.9938 1009.77 79.9439C1009.77 81.816 1009.77 83.7272 1009.77 85.6773C1009.77 87.6274 1009.77 89.6556 1009.77 91.7617C1009.77 93.7898 1009.77 96.013 1009.77 98.4312V124.875C1009.77 127.137 1009.81 129.321 1009.89 131.427C1009.97 133.534 1010.32 135.016 1010.94 135.874C1011.88 137.2 1013.36 138.214 1015.39 138.916C1017.42 139.618 1019.25 140.047 1020.89 140.203V141.373ZM1125.78 58.2975C1122.89 58.6875 1120.55 59.4285 1118.76 60.5206C1117.04 61.6127 1115.71 63.2898 1114.78 65.552C1114.23 66.722 1113.88 68.9062 1113.72 72.1044C1113.57 75.2246 1113.41 78.5788 1113.26 82.1671C1113.1 85.5213 1112.94 89.4996 1112.79 94.1019C1112.71 98.6262 1112.67 103.502 1112.67 108.728C1112.67 110.912 1112.67 113.408 1112.67 116.216C1112.67 118.947 1112.67 121.755 1112.67 124.641C1112.75 127.449 1112.79 130.257 1112.79 133.065C1112.79 135.874 1112.79 138.409 1112.79 140.671C1112.79 140.983 1112.67 141.217 1112.44 141.373C1112.28 141.607 1112.01 141.724 1111.62 141.724C1110.99 141.724 1110.29 141.334 1109.51 140.554C1102.88 132.909 1096.84 125.889 1091.38 119.493C1085.92 113.096 1080.69 107.012 1075.7 101.239C1070.78 95.389 1065.95 89.6946 1061.19 84.1562C1056.43 78.6178 1051.4 72.8844 1046.09 66.956V116.333C1046.09 120.312 1046.17 123.9 1046.33 127.098C1046.56 130.296 1047.07 132.675 1047.85 134.236C1048.71 136.03 1050.03 137.395 1051.83 138.331C1053.7 139.189 1056.24 139.813 1059.43 140.203V141.373H1030.65V140.203C1032.52 139.969 1034.39 139.501 1036.27 138.799C1038.14 138.019 1039.62 136.771 1040.71 135.055C1041.8 133.417 1042.51 130.998 1042.82 127.8C1043.13 124.602 1043.36 120.78 1043.52 116.333C1043.68 112.979 1043.79 109.04 1043.87 104.516C1043.95 99.9133 1043.99 94.9989 1043.99 89.7726C1043.99 87.5104 1043.99 85.6383 1043.99 84.1562C1043.99 82.6741 1043.99 81.231 1043.99 79.8269C1043.99 78.4228 1043.99 76.9797 1043.99 75.4976C1043.99 73.9375 1043.95 72.0264 1043.87 69.7642C1043.64 67.5021 1043.09 65.669 1042.23 64.2649C1041.38 62.7828 1040.36 61.6517 1039.19 60.8716C1038.02 60.0136 1036.73 59.4285 1035.33 59.1165C1034 58.7265 1032.72 58.4535 1031.47 58.2975V57.1274H1055.22L1110.68 121.95V82.1671C1110.68 79.0469 1110.64 76.0827 1110.57 73.2745C1110.49 70.3883 1110.14 68.1261 1109.51 66.488C1108.73 64.3039 1107.33 62.5487 1105.3 61.2227C1103.35 59.8186 1100.5 58.8435 1096.76 58.2975V57.1274H1125.78V58.2975ZM1211.43 119.025L1205.58 141.373H1133.97V140.203C1135.92 139.891 1137.71 139.384 1139.35 138.682C1141.07 137.98 1142.47 137.005 1143.56 135.757C1143.95 135.289 1144.26 134.626 1144.5 133.768C1144.73 132.831 1144.93 131.778 1145.08 130.608C1145.32 129.438 1145.47 128.229 1145.55 126.981C1145.63 125.655 1145.67 124.368 1145.67 123.12C1145.67 122.028 1145.67 120.546 1145.67 118.674C1145.75 116.801 1145.79 114.773 1145.79 112.589C1145.86 110.327 1145.9 108.026 1145.9 105.686C1145.9 103.267 1145.9 101.005 1145.9 98.8992V76.0827C1145.9 74.6786 1145.86 73.2355 1145.79 71.7534C1145.79 70.2713 1145.71 68.8672 1145.55 67.5411C1145.47 66.215 1145.28 65.0449 1144.97 64.0309C1144.73 62.9388 1144.38 62.1587 1143.91 61.6907C1142.74 60.4426 1141.49 59.6626 1140.17 59.3505C1138.84 58.9605 1137.13 58.6095 1135.02 58.2975V57.1274H1199.61L1207.57 76.4337L1206.4 77.0187C1200.08 69.1402 1194.15 63.8358 1188.61 61.1057C1187.28 60.4816 1184.83 59.9356 1181.24 59.4675C1177.65 58.9995 1173.28 58.7655 1168.13 58.7655C1166.5 58.7655 1164.78 58.8435 1162.99 58.9995C1161.27 59.0775 1160.02 59.1945 1159.24 59.3505C1159.08 60.5986 1158.93 63.1728 1158.77 67.0731C1158.69 70.9733 1158.66 75.4976 1158.66 80.646C1158.66 83.6102 1158.66 86.1063 1158.66 88.1345C1158.66 90.1626 1158.66 91.8397 1158.66 93.1658C1158.73 94.4139 1158.77 95.389 1158.77 96.091C1158.77 96.715 1158.77 97.1441 1158.77 97.3781C1159.16 97.3781 1159.94 97.3781 1161.11 97.3781C1162.28 97.3781 1163.61 97.3391 1165.09 97.2611C1166.65 97.1831 1168.17 97.1051 1169.65 97.0271C1171.21 96.8711 1172.5 96.676 1173.52 96.442C1175.86 95.896 1177.81 95.1549 1179.37 94.2189C1180.93 93.2828 1182.17 92.1517 1183.11 90.8257C1184.12 89.4996 1184.9 87.9785 1185.45 86.2623C1186.07 84.4682 1186.62 82.4791 1187.09 80.2949H1188.49V117.152H1187.09C1186.46 114.656 1185.49 112.082 1184.16 109.43C1182.92 106.778 1181.59 104.789 1180.19 103.463C1178.94 102.37 1177.42 101.473 1175.62 100.771C1173.91 100.069 1171.88 99.6402 1169.54 99.4842C1168.37 99.4062 1167.39 99.3672 1166.61 99.3672C1165.83 99.2892 1165.05 99.2502 1164.27 99.2502C1163.57 99.2502 1162.79 99.2502 1161.93 99.2502C1161.15 99.2502 1160.14 99.2502 1158.89 99.2502C1158.73 100.342 1158.66 101.941 1158.66 104.048C1158.66 106.154 1158.66 108.338 1158.66 110.6C1158.66 111.614 1158.66 112.784 1158.66 114.11C1158.66 115.436 1158.66 116.762 1158.66 118.088C1158.66 119.337 1158.66 120.546 1158.66 121.716C1158.73 122.808 1158.77 123.744 1158.77 124.524C1158.85 127.02 1158.97 129.399 1159.12 131.661C1159.36 133.846 1159.83 135.484 1160.53 136.576C1161.23 137.668 1162.91 138.448 1165.56 138.916C1168.21 139.384 1171.1 139.618 1174.22 139.618C1175.54 139.618 1177.22 139.579 1179.25 139.501C1181.36 139.423 1183.54 139.228 1185.8 138.916C1188.3 138.604 1190.6 138.019 1192.71 137.161C1194.81 136.225 1196.84 134.938 1198.79 133.3C1200.74 131.661 1202.61 129.672 1204.41 127.332C1206.28 124.914 1208.19 122.028 1210.14 118.674L1211.43 119.025Z" fill="black"/>
<mask id="mask0_30089_1183" style="mask-type:luminance" maskUnits="userSpaceOnUse" x="180" y="25" width="106" height="136">
<path d="M180.615 25.9936V119.58C181.955 118.684 183.443 118.034 184.941 117.456C188.157 116.338 191.468 115.383 194.889 115.226C195.212 115.226 195.537 115.214 195.861 115.214C196.185 115.214 196.511 115.214 196.834 115.231C200.222 115.421 203.444 116.523 206.14 118.598C206.568 119.054 207.047 119.467 207.424 119.965C208.212 121.009 208.621 122.215 208.766 123.469C209.427 121.844 211.703 120.915 214.801 122.395C215.82 122.882 216.198 123.024 217.166 123.657C218.782 124.713 220.175 126.083 221.293 127.653C221.562 128.148 221.868 128.623 222.099 129.137C222.684 130.437 222.855 131.849 222.705 133.235C223.359 133.08 224.018 132.941 224.686 132.85C225.708 132.811 227.043 132.782 227.85 133.575C229.32 135.018 229.614 136.191 228.939 138C228.679 138.541 228.391 139.069 228.041 139.557C227.617 140.145 227.148 140.691 226.59 141.159C226.063 141.632 225.523 142.091 224.947 142.504C224.196 143.036 223.41 143.518 222.584 143.926C221.854 144.261 221.152 144.653 220.422 144.987C220.122 145.14 219.845 145.337 219.541 145.483C218.696 146.059 219.795 145.278 218.767 146.059C218.364 146.396 217.843 146.83 217.324 147.1C216.968 147.238 216.669 147.522 216.318 147.674C215.844 147.938 215.881 147.922 215.41 148.207C214.996 148.472 214.581 148.74 214.15 148.975C213.201 149.535 212.196 149.99 211.07 150.003C210.723 150.003 210.375 150.003 210.027 149.99C209.596 149.978 209.165 149.968 208.736 149.924C208.272 149.874 207.809 149.809 207.35 149.723C206.951 149.654 206.392 149.68 205.916 149.639C205.476 149.602 205.04 149.543 204.607 149.456C203.869 149.351 203.116 149.456 202.373 149.422C201.151 149.435 199.927 149.435 198.705 149.459C197.846 149.486 196.988 149.535 196.133 149.62C195.957 149.965 195.782 150.312 195.586 150.647C195.414 150.897 195.424 150.864 195.182 151.541C194.685 152.716 194.16 153.87 193.142 154.7C192.755 154.941 192.397 155.236 191.98 155.422C190.207 156.217 188.291 155.72 186.553 155.126C184.938 154.517 183.365 153.814 181.803 153.084C181.7 153.113 181.6 153.152 181.496 153.178C181.204 153.256 180.909 153.325 180.615 153.396V160.652H285.311V25.9922L180.615 25.9936ZM193.433 122.177C191.296 122.498 189.207 123.125 187.172 123.841C185.783 124.349 184.473 125.005 183.377 126.003C182.442 126.842 181.71 127.866 180.926 128.839C180.826 128.972 180.719 129.099 180.615 129.228V133.867C180.828 133.67 181.046 133.478 181.254 133.277C182.257 132.324 183.274 131.385 184.271 130.425C185.529 129.271 186.739 128.066 187.985 126.898C189.743 125.26 191.531 123.648 193.433 122.177ZM208.781 125.599C208.715 126.579 208.622 127.559 208.385 128.515C208.124 129.491 207.819 130.456 207.313 131.337C208.397 131.562 209.451 131.905 210.463 132.386C211.274 132.804 211.988 133.369 212.801 133.777C213.361 134.019 213.945 134.108 214.547 134.14C214.88 134.162 215.04 133.997 215.277 133.816C215.661 133.507 215.878 133.077 216.025 132.617C216.04 132.404 216.072 132.161 215.998 131.955C215.98 131.902 215.918 131.873 215.895 131.824C215.581 131.164 215.881 131.532 215.497 131.138C214.489 129.916 213.365 129.164 211.939 128.523C210.193 127.737 209.188 126.664 208.781 125.599ZM196.77 135.234C196.524 135.403 196.283 135.581 196.029 135.74C194.253 136.898 192.483 138.071 190.816 139.384C189.114 140.759 187.433 142.159 185.764 143.574C185.049 144.174 184.349 144.79 183.66 145.419C184.469 145.17 185.276 144.916 186.09 144.687C187.518 144.302 188.961 143.984 190.412 143.697C190.85 143.603 191.292 143.529 191.732 143.447C192.466 142.125 193.242 140.827 194.059 139.556C194.866 138.25 195.79 137.025 196.713 135.8C196.727 135.608 196.738 135.419 196.77 135.234ZM200.459 142.161C200.34 142.335 200.22 142.507 200.105 142.683C200.523 142.683 200.94 142.671 201.357 142.669C201.052 142.511 200.755 142.337 200.459 142.161Z" fill="white"/>
</mask>
<g mask="url(#mask0_30089_1183)">
<path d="M232.795 25.998C225.526 25.998 218.74 27.164 212.435 29.4942C206.131 31.8243 200.604 35.0276 195.857 39.1055C191.11 43.1186 187.363 47.844 184.619 53.2812C181.949 58.7184 180.615 64.5439 180.615 70.7579C180.615 75.8714 181.579 80.8234 183.508 85.6132C185.436 90.4031 188.18 94.6735 191.74 98.4277C195.375 102.117 199.751 105.096 204.869 107.361C209.987 109.562 215.773 110.662 222.227 110.662C225.935 110.662 229.346 110.435 232.461 109.982C235.576 109.465 238.508 108.785 241.252 107.943C244.071 107.037 246.703 106.001 249.151 104.836C251.672 103.671 254.158 102.441 256.606 101.146C254.677 108.396 251.376 115.291 246.703 121.828C242.105 128.301 236.541 134.061 230.014 139.109C223.561 144.158 216.403 148.301 208.541 151.537C200.679 154.709 192.593 156.618 184.285 157.266V160.664C193.557 160.664 202.495 159.661 211.099 157.654C219.704 155.648 227.751 152.832 235.242 149.207C242.733 145.582 249.521 141.246 255.603 136.197C261.76 131.084 267.026 125.452 271.402 119.303C275.853 113.089 279.265 106.456 281.639 99.4004C284.086 92.2803 285.311 84.8997 285.311 77.2617C285.311 70.1417 283.901 63.4755 281.082 57.2618C278.338 50.9831 274.593 45.5449 269.846 40.9492C265.099 36.2889 259.535 32.6323 253.156 29.9784C246.777 27.3245 239.989 25.998 232.795 25.998ZM229.012 32.3085C233.388 32.3085 237.469 33.4415 241.252 35.707C245.109 37.9725 248.445 41.0479 251.264 44.9316C254.082 48.7505 256.308 53.2166 257.939 58.33C259.571 63.4435 260.389 68.8799 260.389 74.6405C260.389 77.9417 260.203 81.2748 259.832 84.6406C259.461 88.0065 259.015 91.0819 258.496 93.8652C257.087 94.9655 255.381 96.0346 253.379 97.0703C251.376 98.0412 249.225 98.9146 246.926 99.6914C244.701 100.403 242.401 100.986 240.027 101.439C237.728 101.828 235.577 102.021 233.574 102.021C228.308 102.021 223.746 101.049 219.889 99.1074C216.106 97.1656 212.991 94.4485 210.543 90.9532C208.095 87.4578 206.279 83.3151 205.092 78.5254C203.905 73.6707 203.311 68.3624 203.311 62.6016C203.311 58.912 203.793 55.2556 204.758 51.631C205.796 48.0062 207.355 44.7699 209.432 41.9218C211.509 39.0091 214.141 36.6772 217.33 34.9296C220.594 33.182 224.487 32.3085 229.012 32.3085Z" fill="black"/>
</g>
<mask id="mask1_30089_1183" style="mask-type:luminance" maskUnits="userSpaceOnUse" x="205" y="75" width="145" height="86">
<path d="M205.878 75.8032L205.878 109.487C206.222 109.454 206.567 109.423 206.914 109.407C207.229 109.407 207.544 109.397 207.859 109.397C208.175 109.397 208.491 109.396 208.805 109.416C212.1 109.606 215.234 110.708 217.857 112.783C218.273 113.238 218.738 113.652 219.105 114.15C219.87 115.193 220.268 116.398 220.41 117.65C221.052 116.024 223.265 115.093 226.279 116.574C227.27 117.061 227.638 117.203 228.58 117.836C230.151 118.892 231.506 120.262 232.593 121.832C232.855 122.327 233.153 122.802 233.378 123.316C233.946 124.616 234.112 126.028 233.967 127.414C234.603 127.26 235.243 127.12 235.892 127.029C236.886 126.99 238.185 126.961 238.97 127.754C240.4 129.197 240.685 130.371 240.03 132.18C239.777 132.72 239.496 133.248 239.156 133.736C238.743 134.325 238.287 134.87 237.744 135.338C237.232 135.811 236.706 136.27 236.147 136.683C235.416 137.215 234.652 137.697 233.849 138.106C233.139 138.44 232.456 138.832 231.746 139.166C231.454 139.319 231.184 139.517 230.889 139.662C230.067 140.238 231.136 139.457 230.137 140.238C229.744 140.575 229.237 141.009 228.733 141.279C228.386 141.418 228.096 141.7 227.755 141.854C227.294 142.118 227.329 142.101 226.872 142.387C226.469 142.652 226.066 142.92 225.647 143.155C224.724 143.716 223.746 144.17 222.651 144.182C222.313 144.182 221.975 144.182 221.637 144.17C221.218 144.16 220.799 144.147 220.381 144.103C219.93 144.054 219.479 143.988 219.033 143.902C218.645 143.834 218.101 143.86 217.638 143.818C217.21 143.781 216.787 143.722 216.366 143.635C215.648 143.53 214.915 143.635 214.193 143.602C213.004 143.612 211.814 143.613 210.625 143.638C209.79 143.664 208.957 143.715 208.126 143.799C207.954 144.146 207.783 144.495 207.592 144.832C207.425 145.082 207.435 145.049 207.198 145.726C206.837 146.605 206.46 147.473 205.878 148.201L205.878 160.652L349.618 160.652L349.618 75.8028L205.878 75.8032ZM220.425 119.78C220.361 120.761 220.271 121.742 220.039 122.7C219.786 123.673 219.488 124.637 218.998 125.516C220.052 125.741 221.077 126.084 222.06 126.565C222.849 126.983 223.544 127.547 224.334 127.956C224.879 128.197 225.447 128.287 226.032 128.319C226.356 128.341 226.513 128.176 226.745 127.998C227.117 127.689 227.329 127.259 227.472 126.798C227.482 126.586 227.518 126.343 227.446 126.136C227.43 126.083 227.368 126.055 227.345 126.006C227.04 125.346 227.335 125.714 226.958 125.32C225.978 124.098 224.884 123.346 223.497 122.705C221.8 121.92 220.823 120.847 220.427 119.783L220.425 119.78ZM208.743 129.412C208.504 129.582 208.27 129.76 208.023 129.918C207.304 130.401 206.588 130.887 205.878 131.383L205.878 134.106C205.955 133.982 206.029 133.858 206.106 133.735C206.892 132.429 207.79 131.204 208.688 129.979C208.699 129.787 208.713 129.597 208.743 129.412ZM212.333 136.342C212.218 136.515 212.102 136.687 211.991 136.862C212.396 136.862 212.8 136.851 213.205 136.848C212.908 136.69 212.62 136.517 212.333 136.342Z" fill="white"/>
</mask>
<g mask="url(#mask1_30089_1183)">
<path d="M306.233 75.8054C304.78 75.8058 303.313 75.8672 301.83 75.987C295.927 76.5148 290.203 78.0799 284.658 80.6844C280.095 82.8277 276.056 85.5348 272.541 88.8072C269.026 92.0795 266.295 95.6705 264.347 99.5789C262.485 103.509 261.551 107.626 261.545 111.932C261.596 116.211 262.893 120.466 265.433 124.698C266.893 127.13 268.439 129.274 270.07 131.127C271.758 132.953 273.517 134.589 275.349 136.036C277.267 137.504 279.228 138.798 281.232 139.915C283.264 141.08 285.339 142.194 287.458 143.257C280.23 145.03 272.78 145.755 265.106 145.43C257.52 145.127 250.19 143.893 243.115 141.729C236.07 139.613 229.555 136.658 223.571 132.858C220.938 131.158 218.522 129.316 216.3 127.348C215.957 127.84 215.594 128.318 215.198 128.772C214.827 129.171 214.465 129.579 214.085 129.969C213.785 130.278 213.473 130.573 213.164 130.872C215.024 133.053 217.002 135.134 219.121 137.098C224.299 141.9 229.979 145.998 236.163 149.391C242.347 152.785 248.89 155.419 255.789 157.292C262.776 159.186 269.873 160.279 277.083 160.571C284.38 160.885 291.644 160.341 298.874 158.94C306.191 157.561 313.258 155.27 320.073 152.069C326.427 149.085 331.82 145.368 336.255 140.915C340.777 136.483 344.156 131.747 346.387 126.708C348.677 121.641 349.749 116.46 349.605 111.165C349.462 105.869 347.974 100.862 345.141 96.1433C342.279 91.3763 338.568 87.4145 334.006 84.2567C329.445 81.0987 324.411 78.8186 318.903 77.4147C314.816 76.3416 310.592 75.8042 306.233 75.8054ZM319.19 87.4634C320.047 87.4426 320.896 87.4528 321.735 87.4949C325.152 87.6359 328.268 88.3876 331.083 89.7468C333.927 91.1545 336.241 93.342 338.022 96.3092C339.745 99.1791 340.34 102.328 339.807 105.758C339.304 109.237 337.876 112.716 335.52 116.192C333.222 119.641 330.112 122.971 326.192 126.184C322.271 129.398 317.741 132.213 312.6 134.627C309.655 136.011 306.607 137.286 303.458 138.454C300.309 139.621 297.389 140.618 294.701 141.444C293.165 140.981 291.54 140.31 289.827 139.43C288.172 138.524 286.545 137.48 284.947 136.298C283.436 135.137 282.012 133.873 280.673 132.507C279.421 131.161 278.401 129.834 277.613 128.52C275.54 125.067 274.608 121.666 274.823 118.323C275.066 115.028 276.267 111.846 278.422 108.776C280.577 105.706 283.558 102.779 287.365 99.9927C291.23 97.1797 295.732 94.5657 300.873 92.1511C304.165 90.6046 307.617 89.3876 311.231 88.5007C313.963 87.872 316.617 87.5259 319.19 87.4634ZM208.911 119.352L205.879 120.776C206.935 122.536 208.063 124.235 209.247 125.887C209.722 125.299 210.195 124.709 210.679 124.128C211.031 123.69 211.394 123.263 211.754 122.833C210.753 121.707 209.801 120.55 208.911 119.352ZM213.629 124.839C213.327 125.201 213.024 125.563 212.725 125.928C212.118 126.657 211.519 127.395 210.926 128.135C211.084 128.339 211.252 128.535 211.412 128.737C212.037 128.126 212.652 127.506 213.247 126.862C213.629 126.422 213.978 125.96 214.298 125.479C214.077 125.264 213.845 125.057 213.629 124.839Z" fill="black"/>
</g>
<mask id="mask2_30089_1183" style="mask-type:luminance" maskUnits="userSpaceOnUse" x="35" y="81" width="128" height="80">
<path d="M35.8813 81.9938L35.8811 160.652L162.214 160.652L162.214 143.769C162.012 143.787 161.809 143.807 161.608 143.831C161.463 144.176 161.33 144.529 161.169 144.862C161.027 145.112 161.032 145.078 160.835 145.757C160.425 146.932 159.991 148.086 159.151 148.915C158.831 149.156 158.535 149.451 158.191 149.638C156.726 150.433 155.144 149.937 153.708 149.343C152.374 148.733 151.073 148.027 149.783 147.296C149.698 147.324 149.616 147.361 149.533 147.388C148.761 147.641 147.98 147.849 147.199 148.05C146.44 148.206 145.672 148.33 144.901 148.31C144.405 148.293 143.907 148.27 143.413 148.21C142.76 148.132 142.109 148.03 141.464 147.884C140.856 147.751 140.235 147.704 139.632 147.532C138.846 147.401 138.065 147.225 137.3 146.966C136.531 146.744 135.781 146.459 135.033 146.151C134.842 146.086 134.646 146.019 134.447 145.952C134.365 145.952 134.283 145.962 134.201 145.962C134.068 145.962 133.903 145.972 133.781 145.972C133.427 144.339 133.125 142.687 132.754 141.06C132.344 140.873 131.93 140.702 131.527 140.496C127.229 138.297 128.156 133.603 131.623 133.714C132.265 133.735 132.995 133.919 133.794 134.316C134.103 134.469 134.414 134.609 134.725 134.751C134.904 134.347 135.172 133.992 135.52 133.718C135.613 133.317 135.723 132.922 135.88 132.548C136.25 131.76 136.704 131.034 137.37 130.579C137.051 130.908 137.817 130.147 137.882 130.085C138.175 129.793 138.436 129.479 138.624 129.072C139.034 128.315 139.418 127.536 139.788 126.749C140.198 125.885 140.585 125.001 141.042 124.171C141.55 123.24 142.112 122.362 142.735 121.538C143.401 120.632 144.109 119.766 144.714 118.796C145.566 117.523 146.378 116.201 147.407 115.122C147.995 114.511 148.139 114.326 148.792 113.796C149.901 112.897 151.134 112.245 152.375 111.665C155.03 110.547 157.765 109.592 160.59 109.435C160.857 109.435 161.126 109.425 161.393 109.425C161.661 109.425 161.929 109.424 162.196 109.445C162.21 109.446 162.21 109.446 162.211 109.445L162.211 81.9936L35.8813 81.9938ZM159.391 116.386C157.626 116.707 155.901 117.336 154.22 118.052C153.073 118.56 151.991 119.216 151.086 120.214C150.314 121.054 149.71 122.077 149.062 123.05C148.408 124.105 147.637 125.04 146.918 126.027C146.473 126.612 146.068 127.23 145.708 127.894C145.317 128.614 144.985 129.381 144.631 130.129C144.21 131.027 143.765 131.909 143.3 132.775C142.878 133.608 142.338 134.323 141.743 134.974C141.78 134.995 141.817 135.02 141.853 135.04C142.447 134.494 142.977 133.855 143.561 133.292C144.153 132.691 144.718 132.05 145.347 131.503C145.975 130.934 146.619 130.39 147.213 129.769C147.939 129.034 148.653 128.282 149.333 127.486C150.161 126.533 151.001 125.594 151.825 124.634C152.864 123.48 153.862 122.275 154.891 121.107C156.344 119.469 157.82 117.857 159.391 116.386ZM162.145 129.455C161.943 129.622 161.743 129.792 161.535 129.949C160.069 131.107 158.606 132.28 157.23 133.593C155.824 134.968 154.436 136.368 153.057 137.783C152.475 138.375 151.914 138.996 151.352 139.617C152.009 139.372 152.665 139.121 153.326 138.896C154.506 138.511 155.698 138.193 156.896 137.906C157.258 137.812 157.624 137.738 157.988 137.656C158.594 136.335 159.235 135.036 159.909 133.765C160.577 132.46 161.347 131.239 162.1 130.009C162.109 129.822 162.12 129.636 162.145 129.455Z" fill="white"/>
</mask>
<g mask="url(#mask2_30089_1183)">
<path d="M74.0128 81.9988C70.182 81.9976 66.4704 82.494 62.878 83.4889C58.0373 84.7904 53.6121 86.9053 49.6031 89.8328C45.594 92.7602 42.3319 96.4331 39.8167 100.852C37.3271 105.226 36.0184 109.867 35.8923 114.776C35.7664 119.685 36.7109 124.488 38.7233 129.184C40.6848 133.856 43.6527 138.246 47.6271 142.354C51.5251 146.482 56.2649 149.929 61.8489 152.696C67.8389 155.664 74.0501 157.787 80.4811 159.065C86.8355 160.364 93.219 160.868 99.6321 160.577C105.969 160.306 112.208 159.292 118.348 157.536C124.412 155.8 130.161 153.359 135.596 150.214C136.882 149.469 138.136 148.678 139.372 147.86C139.192 147.793 139.009 147.735 138.83 147.661C138.561 147.53 138.239 147.465 138.011 147.268C137.735 147.133 137.482 146.971 137.211 146.831C137.03 146.715 136.824 146.57 136.656 146.473C136.406 146.366 136.182 146.234 135.936 146.128C135.526 145.91 135.825 146.047 135.346 145.829C135.107 145.703 134.951 145.631 134.664 145.495C134.44 145.36 134.169 145.284 133.962 145.085C133.985 145.095 134.052 145.128 134.031 145.114C133.801 144.968 133.574 144.834 133.388 144.604C133.269 144.452 133.061 144.264 132.934 144.065C132.747 143.815 132.565 143.56 132.394 143.294C132.216 143.021 132.036 142.752 131.847 142.491C131.824 142.432 131.79 142.38 131.752 142.329C131.001 142.595 130.253 142.868 129.487 143.11C123.269 145.116 116.826 146.261 110.159 146.542C103.415 146.842 96.8665 146.17 90.5139 144.526C92.3761 143.541 94.2003 142.509 95.9866 141.428C97.7473 140.393 99.4704 139.194 101.156 137.833C102.766 136.491 104.313 134.975 105.797 133.282C107.23 131.564 108.588 129.577 109.872 127.323C112.105 123.4 113.243 119.455 113.288 115.489C113.282 111.497 112.462 107.679 110.826 104.036C109.114 100.413 106.714 97.0849 103.624 94.0514C100.535 91.0179 96.9855 88.507 92.9753 86.5202C88.102 84.1057 83.0702 82.6539 77.8823 82.1647C76.5788 82.0536 75.2898 81.9991 74.0128 81.9988ZM62.6263 92.8053C64.8873 92.8633 67.2191 93.1835 69.6206 93.7664C72.7968 94.5885 75.8308 95.7155 78.7243 97.1491C83.2421 99.3874 87.1997 101.811 90.5963 104.419C93.9421 107.001 96.562 109.717 98.4563 112.563C100.351 115.409 101.405 118.359 101.619 121.413C101.808 124.512 100.99 127.662 99.1676 130.864C98.4747 132.081 97.5791 133.314 96.4789 134.561C95.3023 135.828 94.0489 136.999 92.7205 138.075C91.3157 139.171 89.886 140.139 88.4316 140.979C86.9264 141.794 85.4996 142.417 84.149 142.846C81.7865 142.081 79.2196 141.157 76.4516 140.075C73.6836 138.993 71.006 137.809 68.417 136.526C63.8992 134.288 59.9168 131.679 56.4712 128.7C53.0255 125.721 50.2935 122.634 48.2738 119.436C46.2033 116.214 44.9464 112.989 44.5043 109.764C44.0366 106.584 44.561 103.665 46.0753 101.005C47.6409 98.254 49.6725 96.2255 52.1724 94.9205C54.6466 93.6606 57.3862 92.9655 60.3892 92.8346C61.1273 92.7957 61.8727 92.786 62.6263 92.8053ZM159.549 122.366C156.167 127.165 151.872 131.338 146.664 134.885C144.094 136.607 141.409 138.138 138.616 139.487C138.727 139.562 138.836 139.64 138.949 139.71C139.255 139.385 139.77 139.196 140.472 139.311C140.605 139.333 140.736 139.368 140.867 139.397C141.39 139.227 141.817 139.386 142.061 139.727C142.609 139.912 143.151 140.126 143.693 140.325C144.435 140.604 145.183 140.848 145.939 141.065C146.456 141.223 146.956 141.456 147.448 141.706C148.512 140.774 149.557 139.814 150.576 138.817C155.127 134.366 159.006 129.323 162.214 123.686L159.549 122.366ZM136.215 140.592C135.521 140.895 134.809 141.168 134.101 141.448C134.129 141.491 134.159 141.532 134.188 141.575C134.326 141.791 134.473 141.996 134.625 142.198C134.87 142.533 134.729 142.318 135.004 142.645C134.993 142.629 134.979 142.612 134.967 142.596C134.968 142.593 135.021 142.633 135.008 142.623C134.753 142.425 135.268 142.809 135.293 142.83C135.256 142.773 135.533 142.928 135.648 142.994C135.857 143.078 136.058 143.183 136.26 143.289C136.45 143.357 136.624 143.512 136.814 143.57C137.016 143.641 137.196 143.783 137.397 143.854C137.7 143.983 137.969 144.2 138.257 144.367C138.458 144.452 138.638 144.61 138.84 144.688C139.08 144.869 139.344 144.944 139.607 145.055C139.95 145.195 140.296 145.327 140.647 145.436C141.067 145.527 141.483 145.651 141.904 145.738C142.05 145.764 142.197 145.774 142.344 145.791C143.281 145.104 144.208 144.402 145.115 143.67C144.415 143.462 143.719 143.234 143.029 142.975C142.414 142.749 141.797 142.504 141.171 142.311C141.147 142.327 141.149 142.324 141.109 142.362C140.686 142.629 140.241 142.776 139.762 142.787C139.273 142.774 138.802 142.68 138.352 142.436C137.906 142.194 137.47 141.914 137.06 141.59C136.732 141.302 136.447 140.973 136.215 140.592Z" fill="black"/>
</g>
<mask id="mask3_30089_1183" style="mask-type:luminance" maskUnits="userSpaceOnUse" x="83" y="0" width="111" height="161">
<path d="M83.1563 0.695312V160.652H193.49V154.027C193.38 154.137 193.266 154.243 193.143 154.344C192.755 154.585 192.397 154.88 191.98 155.066C190.207 155.862 188.291 155.366 186.553 154.772C184.935 154.161 183.359 153.455 181.795 152.723C181.694 152.75 181.597 152.786 181.496 152.813C180.561 153.065 179.617 153.274 178.67 153.475C177.752 153.631 176.822 153.754 175.889 153.735C175.287 153.717 174.685 153.695 174.086 153.634C173.295 153.556 172.507 153.455 171.726 153.308C170.99 153.176 170.238 153.128 169.508 152.956C168.555 152.825 167.61 152.649 166.683 152.39C165.753 152.169 164.845 151.883 163.939 151.576C163.708 151.511 163.471 151.443 163.23 151.376C163.131 151.376 163.031 151.39 162.932 151.39C162.772 151.39 162.571 151.403 162.424 151.403C161.994 149.77 161.629 148.118 161.179 146.491C160.683 146.304 160.182 146.132 159.693 145.926C154.49 143.728 155.612 139.034 159.81 139.145C160.588 139.165 161.471 139.35 162.439 139.747C162.812 139.899 163.189 140.04 163.566 140.182C163.783 139.779 164.1 139.423 164.525 139.153C164.638 138.752 164.77 138.357 164.961 137.983C165.408 137.195 165.958 136.469 166.765 136.014C166.379 136.343 167.305 135.582 167.384 135.52C167.739 135.228 168.056 134.913 168.283 134.506C168.78 133.75 169.245 132.97 169.693 132.184C170.191 131.32 170.658 130.436 171.21 129.606C171.826 128.675 172.507 127.797 173.261 126.973C174.067 126.067 174.925 125.2 175.658 124.231C176.689 122.957 177.671 121.636 178.918 120.557C179.63 119.946 179.804 119.761 180.595 119.231C181.938 118.331 183.43 117.68 184.933 117.1C187.708 116.135 190.555 115.295 193.482 114.981V0.701608L83.1563 0.695312ZM193.451 121.799C191.307 122.118 189.213 122.758 187.172 123.477C185.783 123.985 184.473 124.64 183.377 125.639C182.442 126.478 181.71 127.502 180.926 128.475C180.134 129.529 179.201 130.464 178.33 131.451C177.791 132.036 177.3 132.654 176.865 133.318C176.392 134.039 175.991 134.806 175.56 135.553C175.051 136.451 174.512 137.334 173.949 138.199C173.439 139.032 172.784 139.747 172.064 140.398C172.109 140.421 172.152 140.443 172.197 140.466C172.916 139.919 173.559 139.28 174.266 138.718C174.982 138.117 175.667 137.475 176.428 136.929C177.189 136.36 177.968 135.815 178.688 135.194C179.566 134.46 180.431 133.707 181.254 132.911C182.257 131.958 183.275 131.019 184.272 130.059C185.53 128.905 186.739 127.7 187.985 126.532C189.748 124.889 191.542 123.273 193.451 121.799ZM193.49 137.064C192.58 137.69 191.684 138.334 190.816 139.018C189.114 140.392 187.433 141.792 185.763 143.207C185.058 143.799 184.379 144.421 183.699 145.041C184.494 144.796 185.289 144.546 186.09 144.32C187.518 143.935 188.961 143.617 190.412 143.33C190.847 143.238 191.285 143.163 191.722 143.082C192.286 142.069 192.872 141.069 193.49 140.088V137.064Z" fill="white"/>
</mask>
<g mask="url(#mask3_30089_1183)">
<path d="M138.5 0.695797C130.918 0.695797 123.763 2.27206 117.041 5.42437C110.319 8.57655 104.456 12.9199 99.4531 18.4556C94.4504 23.9144 90.5036 30.3729 87.6113 37.8306C84.641 45.2115 83.1563 53.1312 83.1563 61.5884C83.1563 70.6607 84.4459 79.4261 87.0254 87.8834C89.5269 96.2637 93.1222 104.143 97.8123 111.524C102.424 118.828 107.975 125.516 114.463 131.59C120.873 137.587 128.025 142.74 135.92 147.045C143.815 151.351 152.296 154.695 161.363 157.079C170.431 159.462 179.85 160.653 189.621 160.653V156.616C184.951 156.206 180.349 155.355 175.812 154.092C175.219 154.092 174.626 154.092 174.033 154.068C173.281 154.041 172.526 154.006 171.781 153.891C171.2 153.788 170.626 153.655 170.047 153.541C169.538 153.408 169.035 153.255 168.537 153.084C168.211 152.953 167.822 152.888 167.545 152.692C167.211 152.556 166.905 152.394 166.576 152.254C166.357 152.139 166.107 151.994 165.904 151.897C165.602 151.788 165.331 151.657 165.033 151.551C164.536 151.334 164.898 151.47 164.318 151.252C164.029 151.126 163.84 151.055 163.492 150.918C163.221 150.783 162.893 150.707 162.642 150.508C162.671 150.521 162.753 150.552 162.726 150.537C162.447 150.391 162.172 150.257 161.947 150.027C161.803 149.875 161.551 149.687 161.398 149.488C161.171 149.239 160.95 148.983 160.744 148.717C160.528 148.444 160.31 148.175 160.082 147.914C160.06 147.87 160.028 147.833 159.998 147.795C158.552 147.039 157.129 146.249 155.731 145.424C155.242 145.284 154.895 145.066 154.687 144.805C149.994 141.951 145.572 138.703 141.43 135.051C134.551 129.054 128.688 122.21 123.842 114.522C118.917 106.756 115.438 98.5682 113.406 89.9571C115.986 91.4947 118.606 92.9559 121.264 94.3398C123.843 95.7237 126.617 96.9549 129.588 98.0312C132.48 99.0308 135.569 99.8381 138.852 100.453C142.135 100.991 145.73 101.26 149.639 101.26C156.439 101.26 162.536 99.9519 167.93 97.3379C173.323 94.647 177.935 91.1109 181.766 86.7286C185.518 82.2693 188.409 77.1954 190.441 71.5059C192.474 65.8166 193.49 59.9352 193.49 53.8613C193.49 46.4806 192.084 39.5598 189.27 33.1016C186.377 26.6433 182.43 21.0305 177.428 16.2637C172.425 11.42 166.601 7.61554 159.957 4.84762C153.313 2.07985 146.16 0.695797 138.5 0.695797ZM142.486 8.19188C147.254 8.19188 151.357 9.22937 154.797 11.3053C158.158 13.3811 160.934 16.1502 163.123 19.6099C165.312 22.9929 166.953 26.8356 168.047 31.1411C169.063 35.4467 169.57 39.792 169.57 44.1743C169.57 51.017 168.946 57.3202 167.695 63.0864C166.444 68.7758 164.529 73.6965 161.949 77.8482C159.37 81.9999 156.086 85.2291 152.1 87.5357C148.035 89.8422 143.228 90.9966 137.678 90.9966C135.567 90.9966 133.3 90.7667 130.877 90.3053C128.375 89.7671 125.953 89.0747 123.607 88.229C121.184 87.3064 118.917 86.2671 116.807 85.1139C114.696 83.8838 112.899 82.6161 111.414 81.3092C110.867 78.0032 110.397 74.3501 110.006 70.3521C109.615 66.3542 109.42 62.3963 109.42 58.4751C109.42 51.6325 110.28 45.1739 112 39.1002C113.719 33.0263 116.065 27.7203 119.035 23.1842C122.005 18.5711 125.523 14.9199 129.588 12.2289C133.574 9.53799 137.874 8.19188 142.486 8.19188Z" fill="black"/>
</g>
<mask id="mask4_30089_1183" style="mask-type:luminance" maskUnits="userSpaceOnUse" x="158" y="154" width="11" height="7">
<path d="M158.533 154.285V160.652H168.109C167.63 160.558 167.155 160.448 166.684 160.317C165.753 160.095 164.845 159.81 163.939 159.502C163.708 159.437 163.471 159.37 163.23 159.303C163.13 159.303 163.031 159.316 162.932 159.316C162.772 159.316 162.571 159.329 162.424 159.329C161.996 157.704 161.633 156.059 161.186 154.439C161.055 154.389 160.925 154.341 160.795 154.292L158.533 154.285Z" fill="white"/>
</mask>
<g mask="url(#mask4_30089_1183)">
<path d="M158.533 154.284L172.931 160.652Z" fill="black"/>
</g>
<path d="M158.91 149.339C159.223 149.971 159.547 150.146 160.058 150.487C160.173 150.564 160.248 150.739 160.371 150.8C160.648 150.939 161.017 151.041 161.311 151.217C161.468 151.312 161.666 151.475 161.832 151.531C161.899 151.553 161.979 151.5 162.041 151.531C162.072 151.547 162.016 151.611 162.041 151.635C162.085 151.679 162.291 151.708 162.354 151.739C162.494 151.809 162.499 151.988 162.563 152.052C162.611 152.1 162.898 152.219 162.98 152.261C163.335 152.438 163.753 152.449 164.128 152.574C164.648 152.747 165.178 152.924 165.694 153.095C166.069 153.221 166.461 153.241 166.842 153.304C167.758 153.457 168.668 153.709 169.555 153.93C170.081 154.062 170.53 154.348 171.017 154.557C171.456 154.745 172.576 155.112 172.999 155.183C173.473 155.261 173.879 155.386 174.356 155.496C175.038 155.653 175.764 155.673 176.443 155.809C177.4 156 178.393 156.327 179.366 156.435C180.232 156.531 181.108 156.472 181.975 156.539C182.288 156.574 182.601 156.61 182.914 156.643C183.018 156.678 183.118 156.734 183.227 156.747C183.4 156.768 183.576 156.728 183.749 156.747C184.034 156.779 184.299 156.924 184.584 156.956C184.757 156.975 184.934 156.931 185.106 156.956C185.183 156.969 185.238 157.048 185.314 157.06C186.406 157.06 185.275 156.999 185.941 157.164C185.954 157.164 186.327 157.133 186.358 157.164C186.383 157.189 186.327 157.253 186.358 157.268C186.693 157.436 187.318 157.228 187.715 157.268C188.271 157.324 188.652 157.477 189.176 157.477" fill="black"/>
<path d="M156.51 146.102L161.019 149.464L173 154.66L156.51 146.102Z" fill="black"/>
<path d="M160.998 149.861C161.962 150.206 163.293 150.486 163.92 151.113Z" fill="black"/>
<path d="M160.789 148.815C160.928 149.024 161.059 149.239 161.206 149.442C161.337 149.622 161.466 149.806 161.624 149.963C161.888 150.227 162.56 150.64 162.876 150.798C163.002 150.861 163.064 151.049 163.189 151.111C163.251 151.142 163.329 151.111 163.398 151.111C163.643 151.111 163.349 151.086 163.607 151.215C163.717 151.27 164.723 151.246 164.755 151.215C164.768 151.202 164.768 150.913 164.755 150.902C164.577 150.725 164.375 150.534 164.129 150.485C161.444 149.948 163.905 150.588 162.25 150.381C162.173 150.368 162.118 150.289 162.041 150.277C161.904 150.254 161.76 150.304 161.624 150.277C161.41 150.234 161.297 149.957 161.102 149.859C160.924 149.77 161.003 150.089 160.893 149.651C160.825 149.379 160.836 149.092 160.789 148.815Z" fill="black"/>
<path d="M161.531 149.275C161.702 149.275 161.517 149.262 161.694 149.317C161.754 149.335 161.818 149.338 161.877 149.358C162.138 149.441 162.381 149.576 162.61 149.725C162.817 149.859 163.049 150.012 163.2 150.213C163.266 150.301 163.333 150.392 163.404 150.478C163.429 150.508 163.45 150.542 163.485 150.559C163.498 150.559 163.5 150.559 163.505 150.559C163.529 150.583 163.582 150.721 163.566 150.763C163.5 150.942 163.444 150.951 163.241 151.068C163.13 151.132 162.905 151.246 162.752 151.231C162.384 151.194 161.904 150.965 161.673 150.681C161.621 150.617 161.58 150.544 161.531 150.478C161.457 150.379 161.503 150.516 161.429 150.315C161.384 150.192 161.399 150.076 161.388 149.948C161.388 149.927 161.37 149.908 161.368 149.887C161.352 149.762 161.354 149.528 161.41 149.419C161.438 149.363 161.492 149.324 161.532 149.276L161.531 149.275Z" fill="black"/>
</g>
</svg>
